<svg data-v-0aca008c="" aria-hidden="true" class="svg-icon iconMarketingTeams mr16 native fc-black" width="157" height="37" viewBox="0 0 157 37"><path fill="#F48024" d="M35.7 28.08h-5.26q-.25.01-.26.26v8.24q.01.25.26.26h1.26q.25-.01.26-.26v-3.21h3.16q.25 0 .26-.27v-1.13q-.01-.24-.26-.26h-3.16v-1.97h3.76q.25 0 .26-.27v-1.13c-.02-.13-.15-.26-.28-.26m13.76 5.02q.6-.24 1.03-.76.5-.63.5-1.58.01-.76-.34-1.37-.37-.61-1-.94a3 3 0 0 0-1.47-.34h-3.21q-.25.01-.26.26v8.23q.01.26.26.27h1.26q.25 0 .26-.27v-3.2h1.13l1.66 3.31q.08.14.23.16h1.45a.3.3 0 0 0 .24-.13.24.24 0 0 0 0-.27zm-2.97-3.36h1.58q.54-.01.84.29.3.26.3.76a1 1 0 0 1-.3.74 1.2 1.2 0 0 1-.84.29H46.5zm14.59-1.66H55.3q-.26.01-.27.26v1.13q0 .26.27.27h2v6.84q.01.25.26.26h1.23q.25-.01.26-.26v-6.84h2q.25 0 .26-.27v-1.13c.03-.13-.1-.26-.23-.26m6.93 0h-5.25q-.26.01-.27.26v8.24q.01.25.27.26H68q.25-.01.27-.26v-1.13q0-.25-.27-.27h-3.75v-1.94h3.15q.25 0 .26-.27v-1.1q-.01-.25-.26-.27h-3.15v-1.86H68q.25 0 .27-.27v-1.13a.3.3 0 0 0-.27-.26m5.63.18a.3.3 0 0 0-.24-.18h-1a.3.3 0 0 0-.24.18l-3.02 8.24a.3.3 0 0 0 .03.24.2.2 0 0 0 .2.1h1.35q.16-.02.24-.18l.5-1.48h2.86l.5 1.48a.3.3 0 0 0 .24.18h1.33q.12-.01.22-.1a.3.3 0 0 0 .02-.24zm.15 5.34H72l.92-2.58zm11.43-5.52h-1.26q-.15 0-.23.16l-2.1 4.6-2.16-4.6q-.07-.15-.24-.16h-1.26q-.25.01-.26.26v8.24q.01.25.26.26h1.26q.25-.01.27-.26v-4.34l1.44 2.97q.07.14.24.16h.92q.15 0 .23-.16l1.4-2.95v4.34q.01.26.26.27h1.26q.25 0 .26-.27v-8.23c-.02-.16-.13-.3-.29-.3m7.07 4.29a2 2 0 0 0-.68-.42q-.48-.18-.97-.24l-.95-.13q-.24-.03-.47-.13a1 1 0 0 1-.32-.19q-.22-.19-.2-.58 0-.29.12-.52.15-.23.4-.34.28-.13.68-.14.36 0 .63.06.28.05.53.18.23.11.47.34a.25.25 0 0 0 .37 0l.81-.79a.3.3 0 0 0 .08-.18.2.2 0 0 0-.08-.18 4 4 0 0 0-1.2-.77 4 4 0 0 0-1.53-.23q-.9 0-1.58.31-.68.33-1.05.95-.37.64-.37 1.4 0 1.1.69 1.76a3 3 0 0 0 1.7.73l.98.14c.2.02.4.07.5.1q.16.05.26.18.23.22.23.66.01.47-.34.71-.4.3-1.1.3-.38 0-.74-.09a3 3 0 0 1-.63-.23q-.3-.18-.55-.42a.2.2 0 0 0-.18-.08.2.2 0 0 0-.19.08l-.84.81a.2.2 0 0 0-.08.18.2.2 0 0 0 .08.19q.63.62 1.37.9a5 5 0 0 0 3 .07 2.7 2.7 0 0 0 1.7-1.4q.24-.52.24-1.1-.04-1.26-.79-1.9M40.25 28a3.2 3.2 0 0 0-2.38.97c-.87.88-.87 1.98-.87 3.37v.24c0 1.4 0 2.5.87 3.37a3.2 3.2 0 0 0 2.38.97 3.2 3.2 0 0 0 2.38-.97c.88-.9.88-1.96.88-3.43v-.12c0-1.47 0-2.53-.88-3.42a3.2 3.2 0 0 0-2.38-.98m-.95 2.17a1.3 1.3 0 0 1 .95-.4 1.2 1.2 0 0 1 .94.4c.29.32.38.68.38 2.3 0 1.6-.1 1.95-.38 2.28a1.2 1.2 0 0 1-.94.4 1.3 1.3 0 0 1-.95-.4c-.28-.3-.37-.66-.37-2.28s.1-1.97.37-2.3"></path><path fill="#BCBBBB" d="M21.93 20v7.97H3V20H0v10.97h24.92V20z"></path><path fill="#F48024" d="M5.52 25.45h13.89v-2.62H5.52zm.28-6.27L19.29 22l.55-2.7-13.49-2.83zm1.78-6.47 12.49 5.83 1.16-2.5L8.74 10.2zm3.47-6.14 10.6 8.83 1.77-2.11L12.8 4.46zM17.87.04l-2.22 1.64 8.22 11.08 2.22-1.64z"></path><path fill="currentColor" d="m35.66 19.27-1.77-.17c-1.4-.1-1.93-.68-1.93-1.6 0-1.14.86-1.83 2.47-1.83q1.73-.02 2.93.87l1.06-1.05a6.2 6.2 0 0 0-3.98-1.18c-2.36 0-4.06 1.21-4.06 3.24 0 1.82 1.15 2.79 3.3 2.97l1.82.16c1.27.1 1.84.64 1.84 1.61 0 1.3-1.12 1.95-2.93 1.95a4.5 4.5 0 0 1-3.44-1.27l-1.07 1.08c1.22 1.16 2.67 1.59 4.53 1.59 2.66 0 4.49-1.24 4.49-3.37 0-2.07-1.33-2.83-3.26-3m13.81-4.96c-1.77 0-2.88.35-3.86 1.59-.02.02 1.05 1.06 1.05 1.06.65-.92 1.38-1.26 2.8-1.26 2.02 0 2.82.8 2.82 2.42v1.06h-3.32c-2.47 0-3.81 1.25-3.81 3.18 0 .88.28 1.7.82 2.24.7.71 1.59 1 3.11 1 1.49 0 2.3-.29 3.19-1.18v1.06h1.6v-7.5c.02-2.38-1.42-3.67-4.4-3.67m2.81 7.26q0 1.38-.55 1.92c-.7.68-1.52.73-2.47.73-1.75 0-2.54-.6-2.54-1.88s.8-1.95 2.47-1.95h3.1zm7.95-5.83c1.05 0 1.7.32 2.54 1.23l1.07-1.05a4.3 4.3 0 0 0-3.61-1.61c-2.8 0-4.89 1.88-4.89 5.65s2.11 5.66 4.89 5.66c1.52 0 2.49-.41 3.63-1.65l-1.1-1.05c-.81.91-1.48 1.25-2.53 1.25a3 3 0 0 1-2.56-1.25c-.52-.72-.72-1.58-.72-2.98s.2-2.23.72-2.97a3 3 0 0 1 2.56-1.23m13.83-1.3h-2.02l-5.01 4.86V9.5h-1.61v16h1.6v-4.03L69 19.5l3.7 6h2l-4.58-7.13zm7.6-.58c-1.7 0-2.84.66-3.56 1.41-1.04 1.08-1.3 2.38-1.3 4.46 0 2.1.26 3.4 1.3 4.48a4.7 4.7 0 0 0 3.56 1.41c1.7 0 2.87-.66 3.58-1.41 1.04-1.08 1.3-2.39 1.3-4.48 0-2.08-.26-3.38-1.3-4.46a4.8 4.8 0 0 0-3.58-1.41M83 22.52q-.5.5-1.34.5-.85-.01-1.32-.5c-.6-.59-.66-1.6-.66-2.8s.07-2.2.66-2.78c.34-.34.75-.5 1.32-.5q.86.01 1.34.5c.6.59.67 1.6.67 2.77 0 1.2-.08 2.22-.67 2.81M94.17 14l-2.33 7.1L89.5 14h-3l4.23 11.5H93L97.2 14zm7.9-.13c-2.98 0-5 2.11-5 5.87 0 4.66 2.6 5.89 5.31 5.89a5.5 5.5 0 0 0 4.37-1.8l-1.74-1.7a3.2 3.2 0 0 1-2.61 1.06c-1.61 0-2.52-1.07-2.52-2.55h7.19v-1.3c.02-3.14-1.79-5.47-5-5.47m-2.18 4.8c.02-.5.1-.83.27-1.24a2 2 0 0 1 1.92-1.2c.96 0 1.6.5 1.91 1.2.18.41.25.73.27 1.24zm11.44-3.57V14h-2.81v11.5h2.86v-6.92c0-1.45.97-2.12 1.86-2.12.7 0 1.08.24 1.52.69l2.17-2.19a3.5 3.5 0 0 0-2.72-1.07 3.8 3.8 0 0 0-2.88 1.21m6.5-2.3v12.69h2.86V16.4h2.12v-2.18h-2.1v-1.26c0-.66.33-1.04 1.01-1.04h1.11V9.5h-1.63c-2.36 0-3.38 1.67-3.38 3.3m16.8 1.07c-1.7 0-2.85.66-3.57 1.41-1.04 1.08-1.3 2.38-1.3 4.46 0 2.1.26 3.4 1.3 4.48.7.75 1.86 1.41 3.56 1.41s2.87-.66 3.58-1.41c1.04-1.08 1.3-2.39 1.3-4.48 0-2.08-.26-3.38-1.3-4.46a4.8 4.8 0 0 0-3.58-1.41m1.35 8.66q-.5.5-1.34.5-.85-.01-1.32-.5c-.6-.59-.67-1.6-.67-2.8s.08-2.2.67-2.78c.34-.34.75-.5 1.32-.5q.86.01 1.34.5c.6.59.66 1.6.66 2.77 0 1.2-.07 2.22-.66 2.81M153.07 14l-1.86 7.1-2.36-7.1h-2.1l-2.34 7.1-1.86-7.1h-3.04l3.52 11.5h2.36l2.4-7.2 2.4 7.2h2.36l3.54-11.5zm-26.02 8.03V9.5h-2.86v12.7c0 1.63 1 3.3 3.37 3.3h1.62v-2.44h-1.1c-.74 0-1.03-.36-1.03-1.04M43.4 16.2l1.49-1.49h-3.06v-3.65H40.2v11.47c0 1.65.95 2.98 2.82 2.98h1.15v-1.4h-.86c-1.04 0-1.5-.6-1.5-1.61v-6.3z"></path></svg>